<svg version="1" xmlns="http://www.w3.org/2000/svg" width="1334.667" height="1334.667" viewBox="0 0 1001.000000 1001.000000"><path d="M474.4 57.3C460.2 65.5 447.1 73 445.5 74c-1.7.9-8.7 5-15.5 9-6.9 4-14.3 8.3-16.5 9.4-2.2 1.2-15.7 9-30 17.3-41.5 24.1-69.6 40.4-74.5 43.1-2.5 1.4-18.4 10.6-35.5 20.5-17 9.9-33 19.1-35.5 20.5-7 3.9-8.7 4.9-39.3 22.6-15.8 9.2-30.2 17.5-32 18.5-1.7 1-7.2 4.2-12.2 7.1-4.9 2.9-10.8 6.2-13 7.5-2.2 1.2-11.5 6.6-20.8 12l-16.7 9.7v457.6l28.3 16.3c15.5 8.9 43.3 25 61.7 35.7 18.4 10.7 35.3 20.4 37.5 21.6 2.2 1.3 9.9 5.6 17 9.8 7.2 4.1 27.6 16 45.5 26.3s36.2 20.9 40.8 23.6c4.5 2.7 8.4 4.9 8.6 4.9.2 0 3.4 1.9 7.2 4.1 3.7 2.3 8.8 5.3 11.3 6.7 2.5 1.4 5.8 3.2 7.3 4.1 5.4 3.2 25.3 14.6 27.9 16.1 1.5.8 5.4 3 8.6 4.9 3.2 1.9 12.8 7.5 21.3 12.4s18 10.4 21 12.2c3 1.8 7.5 4.3 10 5.7 2.5 1.4 12.7 7.3 22.8 13.1 10 5.9 18.8 10.7 19.5 10.7.7 0 7.5-3.7 15.2-8.1 7.7-4.5 16-9.3 18.5-10.7 2.5-1.3 9.7-5.5 16-9.2 13.4-7.8 51.6-29.9 54.5-31.4 1.1-.6 7.6-4.4 14.5-8.4s13.2-7.7 14-8.2c.8-.5 4.2-2.4 7.5-4.3 14.1-8.3 50.4-29.1 54.5-31.4 2.5-1.4 7.2-4.1 10.5-6.1 3.3-1.9 7.6-4.4 9.5-5.5 1.9-1.1 4.9-2.8 6.5-3.8 1.7-1.1 3.7-2.2 4.5-2.6.8-.4 13.8-7.9 29-16.6 15.1-8.8 28.9-16.8 30.5-17.7 21.2-12.3 30.4-17.5 32.2-18.4 1.3-.6 2.3-1.4 2.3-1.9 0-.4.5-.7 1-.7.8 0 27.6-15.2 42-23.9 1.9-1.1 4.1-2.4 4.9-2.8.8-.3 6.4-3.6 12.5-7.1 6.1-3.6 12.3-7.1 13.7-7.9l2.7-1.3V500l.1-228.9-5.7-3.2c-14.1-7.9-17.7-10-24.2-13.9-3-1.8-7.5-4.4-10-5.8-2.5-1.4-18.2-10.5-35-20.2s-32.5-18.8-35-20.2c-2.5-1.4-11.1-6.4-19.2-11-8-4.7-15.2-8.8-16-9.2-.7-.3-3.1-1.7-5.3-3.1-2.2-1.4-5.8-3.5-8-4.7-2.2-1.1-7.1-4-11-6.3-3.8-2.3-9-5.4-11.5-6.7-3.7-2.1-73.6-42.4-84.5-48.8-9.9-5.8-16.5-9.6-20-11.5-2.2-1.2-10.7-6.1-18.8-10.9-8.2-4.7-16.7-9.7-19-10.9-2.3-1.3-14-8.1-26.1-15.1-12-7-24.2-14-27-15.5-2.8-1.6-8.5-4.9-12.7-7.4l-7.5-4.5-26 15.1zm87.7 193c.1.7.2 43 .3 94.2l.1 93 94.3.3 94.2.2v124H562.5v188.5h-124l-.2-92.5c-.1-50.9-.2-93.3-.2-94.3-.1-1.6-5.3-1.7-94.1-1.7s-94-.1-94.1-1.8c-.1-1.8-.1-114.9 0-119.5l.1-2.7h94c88.8 0 94-.1 94.1-1.8 0-.9.1-43.1.1-93.7s.2-92.3.4-92.6c.2-.4 28.1-.7 61.9-.7 46.1 0 61.5.3 61.6 1.1zM250.7 66.8c-.9.2-1.7.7-1.7 1.2s-2.7 5.4-6 11-6 10.3-6 10.5c0 .2-2.2 4-5 8.5-2.7 4.5-5 8.3-5 8.6 0 .2-1.3 2.5-2.9 5.1-3.1 5.3-35.7 61.6-39 67.6-1.2 2.1-1.8 3.6-1.4 3.4.5-.3 11.4-6.5 24.3-14 12.9-7.4 31.8-18.3 42-24.2 26.4-15.3 72.1-41.7 74.5-43 1.1-.6 4.6-2.6 7.8-4.5 3.3-1.9 7.5-4.4 9.5-5.6 20.8-11.7 41.3-23.7 41.6-24.2.4-.7-129.4-1-132.7-.4zM617 67c0 .3 2.8 2.1 6.3 4 3.4 1.9 13.4 7.6 22.1 12.7 8.7 5.1 16.1 9.3 16.3 9.3.3 0 1.7.8 3.1 1.8 1.5 1.1 5.2 3.2 8.2 4.9 3 1.7 15.2 8.6 27 15.5s23.5 13.6 26 15c2.5 1.4 13.9 8 25.4 14.7 11.5 6.6 21 12.1 21.2 12.1.1 0 3.9 2.2 8.4 5 4.5 2.7 8.3 5 8.5 5 .5 0 24.9 14.2 26.4 15.4 1.2.9 1.4.8.8-.6-.6-1.7-50.6-88.7-58.3-101.5-2.4-4-4.4-7.6-4.4-8 0-.5-.9-1.9-1.9-3.2l-1.8-2.3-66.6-.2c-36.7 0-66.7.1-66.7.4zM65.6 385.6c-.4.9-12 21.3-25.8 45.3-13.9 24-25.9 44.9-26.7 46.4-.9 1.6-2 3.6-2.6 4.6-.5.9-3.2 5.3-5.8 9.9L-.2 500l5.5 9.3c4.8 8 40.6 70.1 46 79.7 3.8 6.9 15.8 27 16 27 .4 0-.1-231.1-.6-231.6-.2-.3-.7.3-1.1 1.2zM933.5 500c0 63.2.2 115 .5 115 .4 0 8.9-14.6 51.4-88.3 5.8-10.2 8.1-14.2 12.9-22.6 2.6-4.5 2.6-4.5.6-7.2-1-1.5-1.9-2.9-1.9-3.2 0-.2-6.9-12.4-15.4-27s-16.6-28.5-17.9-30.9c-2.1-3.7-17.2-29.8-23-39.8-1.1-1.9-2.9-5.2-4-7.3-1.2-2-2.3-3.7-2.6-3.7-.3 0-.6 51.7-.6 115zM185.7 821.7c1.4 2.6 3.7 6.5 5 8.5 1.2 2.1 2.3 4 2.3 4.2 0 .2 2.6 4.8 5.8 10.3 5.4 9 31.7 54.4 34.9 60.3.8 1.4 2.2 3.8 3.2 5.5 1 1.6 2.8 4.8 4.1 7 1.2 2.2 3.8 6.6 5.7 9.7l3.4 5.8 5.7.1c22.5.2 127.4 0 127.7-.3.2-.2-36.4-21.6-57.3-33.4-3.1-1.7-34-19.6-85.2-49.2-5.2-3-10.8-6.3-12.5-7.2-1.6-.9-11.7-6.7-22.4-12.9-10.6-6.1-20.2-11.6-21.2-12.2-1.6-.8-1.5-.2.8 3.8zM815.4 817.9c-.8.8-57.4 33.6-71.4 41.4-3 1.7-10.4 6-16.5 9.5-6 3.6-12.8 7.5-15 8.7-2.2 1.3-13.9 8-26 15s-24.1 13.9-26.6 15.4c-35.4 20.3-42.7 24.6-42.4 24.9.2.3 110.9.5 128.6.3l4.6-.1 10.9-18.7c6-10.4 11.4-19.7 12-20.8 1.4-2.5 10.3-17.9 17.6-30.5 3-5.2 10.1-17.5 15.7-27.3 9.3-16 11.4-20.4 8.5-17.8z"/></svg>